HIERARCHY
ROOT Hips
{
	OFFSET 0.000000 0.000000 0.000000
	CHANNELS 6 Xposition Yposition Zposition Xrotation Yrotation Zrotation
	JOINT LeftUpLeg_virtual
	{
		OFFSET 0.000000 0.000000 0.000000
		CHANNELS 3 Xrotation Yrotation Zrotation
		JOINT LeftUpLeg
		{
			OFFSET 15.427100 -6.655098 0.678600
			CHANNELS 3 Xrotation Yrotation Zrotation
			JOINT LeftLeg
			{
				OFFSET 4.081073 -39.591068 13.024000
				CHANNELS 3 Xrotation Yrotation Zrotation
				JOINT LeftFoot
				{
					OFFSET -4.081074 -37.707932 -15.979700
					CHANNELS 3 Xrotation Yrotation Zrotation
					JOINT LeftToeBase
					{
						OFFSET 5.346399 -15.068900 20.645000
						CHANNELS 3 Xrotation Yrotation Zrotation
						JOINT LeftToe_End
						{
							OFFSET 2.754700 0.931300 11.300900
							CHANNELS 3 Xrotation Yrotation Zrotation
							End Site
							{
								OFFSET 0 0 0
							}
						}
					}
				}
			}
		}
	}
	JOINT RightUpLeg_virtual
	{
		OFFSET 0.000000 0.000000 0.000000
		CHANNELS 3 Xrotation Yrotation Zrotation
		JOINT RightUpLeg
		{
			OFFSET -15.569500 -6.655098 0.678600
			CHANNELS 3 Xrotation Yrotation Zrotation
			JOINT RightLeg
			{
				OFFSET -4.081825 -39.591045 13.023800
				CHANNELS 3 Xrotation Yrotation Zrotation
				JOINT RightFoot
				{
					OFFSET 4.081824 -37.707954 -15.979600
					CHANNELS 3 Xrotation Yrotation Zrotation
					JOINT RightToeBase
					{
						OFFSET -5.346400 -15.068900 20.645000
						CHANNELS 3 Xrotation Yrotation Zrotation
						JOINT RightToe_End
						{
							OFFSET -2.754700 0.931300 11.300900
							CHANNELS 3 Xrotation Yrotation Zrotation
							End Site
							{
								OFFSET 0 0 0
							}
						}
					}
				}
			}
		}
	}
	JOINT Spine_virtual
	{
		OFFSET 0.000000 0.000000 0.000000
		CHANNELS 3 Xrotation Yrotation Zrotation
		JOINT Spine
		{
			OFFSET -0.279200 12.230698 -2.892100
			CHANNELS 3 Xrotation Yrotation Zrotation
			JOINT Spine1
			{
				OFFSET -0.232667 10.192268 -1.242267
				CHANNELS 3 Xrotation Yrotation Zrotation
				JOINT Spine1_split
				{
					OFFSET -0.232667 10.192268 -1.242267
					CHANNELS 3 Xrotation Yrotation Zrotation
					JOINT Spine2
					{
						OFFSET -0.232667 10.192268 -1.242267
						CHANNELS 3 Xrotation Yrotation Zrotation
						JOINT Neck_virtual
						{
							OFFSET 0.000000 0.000000 0.000000
							CHANNELS 3 Xrotation Yrotation Zrotation
							JOINT Neck
							{
								OFFSET -0.418800 17.814194 8.416900
								CHANNELS 3 Xrotation Yrotation Zrotation
								JOINT Head
								{
									OFFSET 0.000000 7.031097 3.806800
									CHANNELS 3 Xrotation Yrotation Zrotation
									JOINT HeadTop_End
									{
										OFFSET 0.000000 24.646606 12.978600
										CHANNELS 3 Xrotation Yrotation Zrotation
										End Site
										{
											OFFSET 0 0 0
										}
									}
								}
							}
						}
						JOINT LeftShoulder_virtual
						{
							OFFSET 0.000000 0.000000 0.000000
							CHANNELS 3 Xrotation Yrotation Zrotation
							JOINT LeftShoulder
							{
								OFFSET 8.476499 7.247704 -3.868750
								CHANNELS 3 Xrotation Yrotation Zrotation
								JOINT LeftShoulder_split
								{
									OFFSET 8.476499 7.247704 -3.868750
									CHANNELS 3 Xrotation Yrotation Zrotation
									JOINT LeftArm
									{
										OFFSET 9.308998 -2.777710 0.208600
										CHANNELS 3 Xrotation Yrotation Zrotation
										JOINT LeftForeArm
										{
											OFFSET 29.972298 0.000000 0.000000
											CHANNELS 3 Xrotation Yrotation Zrotation
											JOINT LeftHand
											{
												OFFSET 26.026505 0.000000 0.000000
												CHANNELS 3 Xrotation Yrotation Zrotation
												End Site
												{
													OFFSET 0 0 0
												}
											}
										}
									}
								}
							}
						}
						JOINT RightShoulder_virtual
						{
							OFFSET 0.000000 0.000000 0.000000
							CHANNELS 3 Xrotation Yrotation Zrotation
							JOINT RightShoulder
							{
								OFFSET -7.570500 7.247704 -3.868750
								CHANNELS 3 Xrotation Yrotation Zrotation
								JOINT RightShoulder_split
								{
									OFFSET -7.570500 7.247704 -3.868750
									CHANNELS 3 Xrotation Yrotation Zrotation
									JOINT RightArm
									{
										OFFSET -9.308998 -2.777710 0.208500
										CHANNELS 3 Xrotation Yrotation Zrotation
										JOINT RightForeArm
										{
											OFFSET -29.972300 0.000000 0.000000
											CHANNELS 3 Xrotation Yrotation Zrotation
											JOINT RightHand
											{
												OFFSET -26.026505 0.000000 0.000000
												CHANNELS 3 Xrotation Yrotation Zrotation
												End Site
												{
													OFFSET 0 0 0
												}
											}
										}
									}
								}
							}
						}
					}
				}
			}
		}
	}
}
MOTION
Frames: 4
Frame Time: 0.03333333
7.394598 91.884575 5.110146 0.000000 0.000000 0.000000 -4.006566 9.223010 7.038039 -15.012974 -3.257754 -1.565966 21.693108 6.285301 -2.269643 -3.204244 11.075226 -2.513678 -2.117376 0.007986 -1.511400 0.000000 0.000000 0.000000 -4.561189 11.454327 6.845672 13.499982 -11.532952 -16.956141 17.180873 -10.906081 0.885772 -11.247410 -31.810308 25.406306 -2.688247 0.151453 -0.350137 0.000000 0.000000 0.000000 -1.481611 8.480559 6.379680 4.356615 2.866128 12.677268 7.438552 6.058242 1.296034 0.722660 -0.548562 0.292138 0.000000 0.000000 0.000000 0.984099 5.683355 2.899412 -13.593073 -10.590497 -4.352218 5.279208 -11.887088 -4.484684 0.000000 0.000000 0.000000 0.737159 5.675121 1.957856 -0.146950 1.875172 18.997112 -0.272278 -0.190441 -2.634619 -37.727790 2.626458 -9.880965 -22.508620 -29.608105 8.519625 0.000000 0.000000 0.000000 -0.973330 5.220199 2.523259 6.222428 1.797849 -1.026760 0.454647 2.960160 1.667468 38.091436 -49.064309 67.993591 -13.352924 31.008792 39.625575 0.000000 0.000000 0.000000 
6.759130 91.254669 5.689342 0.000000 0.000000 0.000000 -3.148860 19.902394 5.768714 -19.072086 -8.073185 -1.986924 22.054104 4.431908 -2.613157 -1.394508 9.173059 -3.641339 -2.617390 0.464784 -1.624690 0.000000 0.000000 0.000000 -3.888444 21.688246 5.650472 15.864723 -17.883262 -13.964000 16.064395 -11.410539 1.381022 -12.687038 -31.431250 26.406018 -4.086726 -0.003706 0.054282 0.000000 0.000000 0.000000 0.131694 18.099822 5.236751 1.771216 4.363357 11.715393 6.593909 7.363777 0.030121 0.729720 -0.537256 0.152265 0.000000 0.000000 0.000000 0.523922 6.924315 1.708192 -17.007989 -15.999440 -1.301167 7.911604 -17.564139 -2.828378 0.000000 0.000000 0.000000 0.170047 7.012723 0.438035 -1.401144 8.118092 17.457134 -0.325680 -0.731198 -2.897279 -50.500916 6.279441 -13.437521 -27.353279 -29.899638 6.861308 0.000000 0.000000 0.000000 -1.038016 6.664834 1.134015 5.906096 1.852071 -1.226867 -0.347614 3.279305 2.443410 34.532794 -52.980200 70.846588 -13.624147 35.876450 38.742599 0.000000 0.000000 0.000000 
6.020501 90.618744 6.342670 0.000000 0.000000 0.000000 -1.571584 28.908622 4.344420 -23.903775 -12.316512 -2.975595 23.183812 3.080074 -3.052120 0.958673 7.696263 -3.765872 -2.508162 0.769983 -1.980640 0.000000 0.000000 0.000000 -2.263250 30.707345 4.337789 17.205518 -23.956854 -11.082667 15.457220 -11.626972 2.056545 -14.840321 -30.807350 26.100134 -4.752277 -0.090171 0.333922 0.000000 0.000000 0.000000 1.769988 26.369053 3.992877 -0.520324 5.874517 10.593203 5.962718 8.497915 -1.372915 0.554730 -0.636743 0.102081 0.000000 0.000000 0.000000 0.365793 8.036080 0.251548 -20.389199 -20.958560 2.004690 10.368050 -21.929789 -0.845528 0.000000 0.000000 0.000000 -0.096382 8.145939 -1.150471 -2.087598 12.235082 13.658169 0.465761 -1.489936 -2.179738 -59.372266 7.581660 -18.763180 -31.772230 -28.745469 4.045507 0.000000 0.000000 0.000000 -0.804306 7.906501 -0.337022 5.622372 2.863396 -0.037327 -1.176203 3.843866 2.917409 26.951254 -51.260484 68.742910 -10.277330 39.283737 34.229759 0.000000 0.000000 0.000000 
5.256240 90.073601 6.737812 0.000000 0.000000 0.000000 0.536204 36.172839 2.781460 -28.595823 -15.827189 -4.579697 24.172231 2.303546 -3.339982 3.123552 6.882709 -2.927370 -1.777740 0.920054 -2.370037 0.000000 0.000000 0.000000 0.025580 38.142638 2.813100 17.802468 -29.360347 -8.750763 15.296391 -11.577068 2.741802 -17.463347 -30.085986 24.616757 -4.599188 -0.106066 0.459910 0.000000 0.000000 0.000000 3.233415 33.508881 2.688050 -2.467200 7.252814 9.255018 5.663359 9.466552 -2.589617 0.448705 -0.936089 0.010395 0.000000 0.000000 0.000000 0.538254 8.966263 -1.074298 -23.894237 -25.198625 4.720976 12.352243 -25.058253 1.133206 0.000000 0.000000 0.000000 -0.105840 9.115621 -2.391115 -2.270734 14.455962 8.086104 1.187763 -2.369974 -0.921931 -64.525412 8.084910 -24.693453 -35.589838 -26.918807 0.093243 0.000000 0.000000 0.000000 -0.238841 8.945322 -1.569086 5.303390 4.687492 2.136829 -2.105412 3.797892 3.138877 17.618002 -44.203932 62.816259 -4.045482 39.604790 26.888305 0.000000 0.000000 0.000000 
